<svg xmlns="http://www.w3.org/2000/svg" viewBox="0 0 379 72"><path fill="#F9B200" fill-rule="evenodd" d="M115.1 0h5.9c.6 0 1.2.2 1.7.6l.4.6a3.7 3.7 0 01.3 1.6v63.7c0 .5 0 1-.2 1.4-.4 1.5-1.4 2.2-3.2 2.2h-18.1l-1.5-.6-2-1.5-25-26.1a1010.5 1010.5 0 002.1 26.3c0 .4 0 .8-.3 1.2-.1.2-.3.4-.6.5-.3.2-.6.2-1 .2h-6.2a2.7 2.7 0 01-1.7-.5c-.5-.4-.7-1.2-.7-2.3V3.6c0-.5 0-1 .2-1.5C65.7.7 67 .1 69 0h16.6l1.4.1a5 5 0 011.7.7 12.6 12.6 0 012.5 2L115 26.4a2552.6 2552.6 0 01-2-24.4c0-.4 0-.8.3-1.2.3-.5.8-.8 1.7-.8h.2zm136.3 70.2l-6.8-13.4a25.3 25.3 0 01-7.8 2.9v3.6a12.3 12.3 0 01-.3 2.8 4.9 4.9 0 01-2.4 3l-1 .5c-1 .4-2.2.5-3.6.5H208a20.5 20.5 0 01-3.8-.4 5.7 5.7 0 01-2.3-1.3 4.1 4.1 0 01-1.1-2 12.6 12.6 0 01-.3-3V6.7c0-1.1 0-2.1.3-3a4.4 4.4 0 013.2-3.3h.2c1-.4 2.2-.5 3.8-.5h21.8c2.3 0 4.6.2 6.9.6 2.3.4 4.4 1 6.4 1.9a22.2 22.2 0 019.3 7.5 23.5 23.5 0 013.7 8.6 33.5 33.5 0 011 9.6 65 65 0 01-1.3 12.4 36.6 36.6 0 01-3.3 8.4 24.3 24.3 0 01-3.2 4.2l9.8 13c.3.4.5.8.5 1.2 0 .5-.2 1-.5 1.3a5.2 5.2 0 01-1.1.9l-3 1.7a4 4 0 01-.7.3l-.7.1-.7-.1a2.4 2.4 0 01-.8-.6l-.6-.8zm-119-6.9V6.8c0-1.1 0-2.1.3-3a4.4 4.4 0 013.2-3.3h.2c1-.4 2.2-.5 3.8-.5h23.5c2.4 0 4.8.2 7.3.5 2.3.3 4.6 1 6.8 1.8a20.9 20.9 0 0111 9.6 27.9 27.9 0 013.2 8.9 51.6 51.6 0 011.2 12 74.8 74.8 0 01-1.3 14.1 42.2 42.2 0 01-3.3 10 26.1 26.1 0 01-5 6.8 23.7 23.7 0 01-13.3 6 53 53 0 01-7.1.4h-23a20.5 20.5 0 01-3.8-.4 5.7 5.7 0 01-2.3-1.3 4.1 4.1 0 01-1.1-2 12.6 12.6 0 01-.3-3zM25.4 0h7.2a6 6 0 011.5.2 2.8 2.8 0 011.2.8 5.4 5.4 0 011 1.4l.9 2.1 22.4 59.9a8.4 8.4 0 01.3 1.2 6 6 0 010 2c0 .5-.2.8-.4 1.1l-.5.6a4 4 0 01-1 .6l-1.3.2H29.1a6.2 6.2 0 01-3-.6 5 5 0 01-1-.9 3.3 3.3 0 01-1-1.4l-.5-1.7H10L9.6 67a9.8 9.8 0 01-.6 1.9l-.3.4a1.8 1.8 0 01-.8.6 3 3 0 01-.9.2H1.6a3 3 0 01-.6 0c-.7-.2-1-.6-1-1.2a2.7 2.7 0 01.1-.8v-.3a18.8 18.8 0 01.5-1.4L21 4.6c.5-1.5 1-2.6 1.7-3.4.6-.7 1.5-1.1 2.6-1.2zm239.5 63.3V6.8c0-1.1.1-2.1.3-3a4.4 4.4 0 013.2-3.3h.3c1-.4 2.2-.5 3.8-.5h23.3c1.1.2 2 .4 2.8.8l1 .8c.5.3.8.8 1 1.3.5.8.7 1.7.7 2.6a83.5 83.5 0 010 2.6v54.1a15.2 15.2 0 01-.1 2.5c-.2 1-.5 1.8-1 2.6l-1 1.1a7.4 7.4 0 01-1.4.9c-1 .5-2.6.8-4.4.8h-21a20.5 20.5 0 01-3.7-.4 5.7 5.7 0 01-2.3-1.3 4.1 4.1 0 01-1.2-2 12.7 12.7 0 01-.3-3zm45.5 0V6.8c0-1.1.1-2.1.3-3a4.4 4.4 0 013.2-3.3h.2c1-.4 2.3-.5 3.8-.5H341.3c1.1.2 2 .4 2.7.8.4.2.8.5 1 .8.5.3.9.8 1.1 1.3.4.8.6 1.7.7 2.6a83.5 83.5 0 010 2.6v54.1a15.2 15.2 0 01-.2 2.5c-.1 1-.4 1.8-1 2.6-.2.4-.6.8-1 1.1a7.4 7.4 0 01-1.3.9c-1.1.5-2.6.8-4.5.8H318a20.5 20.5 0 01-3.8-.4 5.7 5.7 0 01-2.3-1.3 4.1 4.1 0 01-1.1-2 12.7 12.7 0 01-.3-3zM168.8 6.8v56.5a12.4 12.4 0 007.8-2.4 16.6 16.6 0 005.4-6.3 29.4 29.4 0 003-9.3 60.3 60.3 0 00-1.1-26.8 22.8 22.8 0 00-2-4.2 16.2 16.2 0 00-5.3-5.5c-1.4-.8-3-1.4-4.6-1.7-1-.2-2.1-.3-3.2-.3zm68 .4v46a15.2 15.2 0 006-2.8 16 16 0 004.2-5.2 24 24 0 002.4-7.2 43.2 43.2 0 00-1-20.8 20 20 0 00-1.4-2.7 14.8 14.8 0 00-8.2-6.8l-2-.5zm120.5 48.2a10.8 10.8 0 000 8.8 11.7 11.7 0 006 6 11 11 0 0012.4-2.4 11.3 11.3 0 000-16 11.3 11.3 0 00-18.4 3.6zm-340.7-15l-5.2 19.1H22l-5.4-19z"/></svg>